<svg width="192" height="89" xmlns="http://www.w3.org/2000/svg">
 <g>
  <title>background</title>
  <rect fill="none" id="canvas_background" height="91" width="194" y="-1" x="-1"/>
 </g>
 <g>
  <title>Layer 1</title>
  <g id="svg_266">
   <path id="svg_267" d="m155.205,57.971" fill="#231F20"/>
   <path id="svg_268" d="m179.252,82.298c-0.044,-0.488 -0.031,-3 -0.106,-5.599c0.106,-0.003 0.385,0.013 0.385,0.013s2.117,6.573 6.275,5.375c0.705,-0.203 1.307,-0.715 1.531,-1.423c1.357,-4.31 -6.958,-3.536 -7.995,-7.515c-1.223,-4.678 4.854,-6.988 8.819,-4.553c0.225,0.445 0.765,4.062 0.781,4.068c0.01,0.006 -0.522,0.068 -0.58,0c-0.072,0 -0.909,-2.693 -2.981,-3.691c-0.43,-0.207 -3.079,-0.778 -3.654,1.431c-1.099,4.205 10.256,2.713 7.906,9.579c-0.497,1.454 -1.398,2.263 -2.627,2.833c-1.566,0.726 -3.85,0.506 -5.51,0.208c-0.715,-0.126 -1.553,-0.493 -2.244,-0.726" fill="#231F20"/>
   <path id="svg_269" d="m166.135,67.895c9.923,-0.95 12.524,13.359 2.012,15.056c-11.091,1.791 -13.801,-13.924 -2.012,-15.056m0.675,0.979c-6.983,0 -6.03,14.34 0.48,13.204c6.004,-1.049 5.406,-13.204 -0.48,-13.204" fill="#231F20"/>
   <path id="svg_270" d="m85.512,67.801c-0.051,0.371 0.006,2.278 0,2.892c4.964,-6.429 8.017,0.594 5.082,1.399c-1.936,0.531 -1.643,-1.437 -3.284,-1.273c-0.579,0.057 -1.156,0.534 -1.568,1.748c-0.075,0.221 -0.219,0.648 -0.224,1.271c-0.006,2.639 -0.095,5.762 0.134,6.674c0.36,1.425 1.958,2.056 2.842,1.982l0,0.43c-2.2,-0.026 -6.188,-0.013 -8.835,0l0,-0.4c0.654,0.02 2.527,-0.928 2.518,-2.383c-0.025,-4.063 0.11,-6.84 -0.182,-7.907c-0.213,-0.789 -0.854,-1.399 -1.615,-1.711c-0.182,-0.072 -1.145,-0.32 -0.39,-0.556c2.18,-0.666 3.732,-1.263 5.522,-2.166" fill="#231F20"/>
   <path id="svg_271" d="m56.136,70.364c2.557,0.695 4.708,2.475 5.103,4.814c1.272,7.576 -7.901,8.142 -14.206,7.638c-1.984,-0.158 -3.877,0.116 -5.104,0.104l0,-0.771c1.355,-0.114 2.553,-0.446 2.553,-2.077l0,-18.213c0,-1.373 -1.221,-1.874 -2.495,-1.878c-0.051,-0.244 -0.035,-0.513 -0.016,-0.761c7.518,0.332 16.22,-1.416 17.638,4.685c1.046,4.477 -2.975,5.852 -3.473,6.459m-7.565,11.126c1.726,0.706 3.064,0.763 4.728,0.438c5.395,-1.072 6.179,-9.118 0.367,-10.43c-1.353,-0.309 -5.095,-0.341 -5.095,-0.128c0,0.001 -0.01,9.028 0,10.12m0.021,-21.131c-0.046,-0.004 -0.022,9.876 -0.022,9.876c0,0.355 3.733,0.079 4.615,-0.291c4.753,-2.016 4.083,-8.912 -1.303,-9.471c-1.495,-0.158 -3.29,-0.235 -3.29,-0.114" fill="#231F20"/>
   <path id="svg_272" d="m77.744,81.912c0.089,0.224 0.164,0.505 0.164,0.505s-0.607,0.303 -1.008,0.416c-3.471,1.004 -3.592,-2.136 -3.592,-2.136c-0.033,-0.019 -0.137,-0.454 -0.548,0.024c-2.077,2.416 -9.029,4.062 -8.562,-0.871c0.167,-1.768 1.333,-2.893 3.118,-3.898c2.057,-1.164 5.218,-1.859 5.476,-2.488c0.216,-0.533 0.117,-2.619 0.117,-3.199c0,-1.23 -1.489,-1.026 -1.996,-0.916c-1.646,0.351 -2.617,1.761 -2.609,2.209c0.047,2.468 -2.063,3.479 -3.2,2.719c-1.719,-1.158 -0.064,-3.848 2.721,-5.068c1.551,-0.68 2.828,-1.166 4.849,-1.281c2.86,-0.154 3.672,1.11 3.672,3.662c0,0 -0.041,9.672 -0.007,9.687c0.001,-0.004 -0.06,0.919 1.405,0.635m-4.881,-7.092c-0.49,0.209 -4.443,1.819 -5.216,3.313c-0.331,0.638 -0.471,1.179 -0.071,1.998c0.965,1.988 5.271,0.338 5.292,-0.996c0.019,-1.375 0,-4.302 -0.005,-4.315" fill="#231F20"/>
   <path id="svg_273" d="m125.856,81.915c0.09,0.225 0.161,0.506 0.161,0.506s-0.605,0.299 -1.005,0.418c-3.471,1.002 -3.591,-2.138 -3.591,-2.138c-0.03,-0.019 -0.136,-0.455 -0.547,0.022c-2.079,2.416 -9.03,4.062 -8.564,-0.87c0.166,-1.771 1.335,-2.89 3.12,-3.901c2.053,-1.164 5.218,-1.855 5.474,-2.486c0.212,-0.533 0.118,-2.617 0.118,-3.197c0,-1.231 -1.489,-1.027 -1.999,-0.918c-1.643,0.354 -2.616,1.761 -2.608,2.209c0.046,2.466 -2.059,3.48 -3.198,2.717c-1.719,-1.153 -0.066,-3.842 2.723,-5.064c1.549,-0.682 2.828,-1.17 4.848,-1.281c2.862,-0.156 3.672,1.109 3.672,3.658c0,0 -0.042,9.672 -0.005,9.69c-0.002,-0.002 -0.065,0.916 1.401,0.635m-4.88,-7.09c-0.49,0.207 -4.444,1.82 -5.219,3.312c-0.327,0.636 -0.468,1.177 -0.068,1.996c0.967,1.989 5.268,0.34 5.289,-0.998c0.021,-1.375 0.004,-4.3 -0.002,-4.31" fill="#231F20"/>
   <path id="svg_274" d="m155.157,58.096c0.044,1.58 0,19.927 0,19.927c0.164,1.847 -0.152,2.479 1.985,3.662l0.028,0.267c-1.664,0.252 -3.488,0.678 -5.078,1.186c-0.01,-1.019 0,-2.158 0,-2.158c0,-1.629 -1.079,1.973 -5.262,2.166c-8.939,0.404 -9.315,-16.985 3.985,-15.078c1.068,0.154 1.304,0.863 1.185,-0.385l0,-4.688c0,0 0.12,-1.104 -2.497,-2.312c-0.121,-0.422 0.402,-0.484 0.636,-0.536c1.587,-0.334 3.555,-1.348 5.018,-2.051m-6.693,10.799c-7.223,1.001 -5.518,13.496 0.455,12.521c1.188,-0.195 3.152,-2.195 3.12,-3.38c-0.034,-1.247 0.033,-5.981 -0.06,-7.073c-0.12,-1.393 -2.072,-2.269 -3.515,-2.068" fill="#231F20"/>
   <path id="svg_275" d="m98.813,67.852l0.054,-0.018l0,2.562c0.163,-0.083 1.344,-1.056 3.188,-1.755c0.74,-0.276 5.707,-1.59 5.819,2.861c0.038,1.527 0,7.036 0,7.877c0,2.885 2.655,3.17 2.655,3.17s0,0.201 -0.006,0.42l-7.998,0c0.026,-0.146 -0.014,-0.42 -0.014,-0.42s2.036,-0.141 2.036,-2.953l0,-7.448c-0.001,-2.729 -2.968,-3.028 -5.658,0.3l0,0.896l0,6.035c0,0.904 0.141,2.828 2.288,3.17l0,0.428c-1.48,0.025 -6.915,0 -8.036,0c-0.014,-0.193 0,-0.428 0,-0.428s2.286,-0.381 2.286,-3.164c0,-2.746 0.005,-6.963 0.005,-6.963c-0.265,-1.654 -2.202,-2.095 -2.19,-2.1c0.012,-0.011 -0.008,-0.328 -0.012,-0.457c1.855,-0.591 3.648,-1.171 5.583,-2.013" fill="#231F20"/>
   <path id="svg_276" d="m133.53,67.855c-0.054,0.368 0.004,2.276 -0.004,2.89c4.965,-6.43 8.017,0.594 5.085,1.4c-1.94,0.533 -1.643,-1.436 -3.288,-1.275c-0.576,0.059 -1.154,0.535 -1.569,1.747c-0.075,0.222 -0.219,0.653 -0.221,1.272c-0.004,2.64 -0.099,5.765 0.133,6.672c0.359,1.426 1.958,2.06 2.843,1.982l0,0.435c-2.202,-0.029 -6.19,-0.015 -8.836,0l0,-0.4c0.655,0.019 2.528,-0.93 2.519,-2.386c-0.024,-4.066 0.112,-6.842 -0.183,-7.907c-0.215,-0.787 -0.854,-1.401 -1.615,-1.71c-0.185,-0.072 -1.142,-0.318 -0.39,-0.557c2.18,-0.67 3.734,-1.26 5.526,-2.163" fill="#231F20"/>
   <path id="svg_277" d="m174.639,67.633c0.21,-0.191 1.218,-1.058 1.155,-1.982c-0.025,-0.357 -0.148,-0.926 -0.528,-1.287c-0.429,-0.412 -0.839,-0.812 -0.839,-1.671c-0.023,-0.907 0.622,-1.577 1.503,-1.671c1.503,0 2.149,1.002 2.149,2.244c0,2.1 -1.291,3.771 -2.96,4.914l-0.48,-0.547z" fill="#231F20"/>
   <path id="svg_278" d="m18.35,61.984c0.781,0 1.418,-0.896 1.418,-2.006c0,-1.104 -0.637,-2.007 -1.418,-2.007c-0.783,0 -1.418,0.9 -1.418,2.007c0,1.111 0.635,2.006 1.418,2.006m14.569,2.058c-2.483,-1.563 -4.069,-0.945 -6.499,-2.648c-1.865,-1.307 -2.474,-2.538 -3.017,-3.879c-0.37,-0.92 -0.532,-1.207 -0.805,-1.207c-0.174,0 -0.389,0.035 -0.389,0.936c0,0.006 0.001,0.012 0.001,0.02c-0.001,0.031 -0.007,0.054 -0.007,0.086c0,1.125 -0.746,4.891 -3.858,4.891c-2.862,-0.007 -3.82,-3.607 -3.82,-4.954l0,-0.041c0,-0.899 -0.214,-0.935 -0.388,-0.935c-0.273,0 -0.437,0.285 -0.806,1.205c-0.541,1.342 -1.152,2.572 -3.016,3.88c-2.427,1.704 -4.017,1.085 -6.497,2.647c-2.473,1.553 -3.818,4.437 -3.18,4.81c0.455,0.268 0.994,-0.513 1.531,-1.202c1.062,-1.373 3.1,-2.48 3.959,-1.699c1.025,0.932 -0.055,2.414 -0.924,4.527c-0.749,1.814 -0.667,3.951 -0.504,5.73c0.295,3.223 -1.156,4.258 -0.305,4.813c0.87,0.562 2.318,-2.025 2.635,-5.179c0.164,-1.613 0.106,-3.215 0.723,-3.215c0.713,0 0.713,3.112 0.492,4.653c-0.43,2.981 -1.988,4.472 -1.711,7.519c0.196,2.145 1.525,2.233 1.552,0.062c0.042,-3.545 3.38,-5.362 3.13,-11.565c-0.146,-3.713 -0.679,-6.509 1.256,-10.508c0.347,-0.722 0.898,-1.936 1.341,-3.076c0.154,0.412 0.486,1.229 0.704,1.594c2.235,3.701 2.25,3.711 1.39,7.058c-1.163,4.515 1.067,6.369 0.662,9.335c-0.232,1.725 0.808,1.775 1.249,0.021c0.529,-2.119 -0.345,-3.392 -0.302,-5.535c0.021,-1.115 0.378,-3.252 1.073,-3.111c0.429,0.086 0.084,1.068 0,2.273c-0.131,1.824 0.45,4.269 1.243,4.033c0.775,-0.23 -0.112,-1.108 0.407,-3.367c0.307,-1.328 0.881,-2.98 0.529,-4.52c-0.705,-3.064 0.989,-5.308 1.388,-6.049c0.291,-0.541 0.575,-1.188 0.743,-1.777c0.447,1.15 1.01,2.387 1.363,3.121c1.931,3.999 1.4,6.795 1.252,10.508c-0.248,6.203 3.086,8.021 3.133,11.565c0.027,2.172 1.356,2.082 1.551,-0.062c0.277,-3.047 -1.282,-4.537 -1.711,-7.519c-0.222,-1.541 -0.222,-4.653 0.492,-4.653c0.619,0 0.557,1.602 0.723,3.215c0.318,3.152 1.767,5.738 2.635,5.179c0.852,-0.558 -0.601,-1.593 -0.305,-4.813c0.163,-1.779 0.242,-3.916 -0.506,-5.73c-0.867,-2.113 -1.946,-3.598 -0.924,-4.527c0.858,-0.781 2.897,0.326 3.961,1.699c0.536,0.689 1.076,1.47 1.53,1.201c0.645,-0.377 -0.705,-3.26 -3.174,-4.81m-5.15,-2.256c0.78,0.497 1.977,-0.023 2.668,-1.156c0.694,-1.137 0.624,-2.459 -0.159,-2.955c-0.779,-0.496 -1.976,0.021 -2.667,1.155c-0.695,1.137 -0.623,2.462 0.158,2.956m-18.8,0c0.779,-0.494 0.852,-1.816 0.158,-2.956c-0.693,-1.134 -1.888,-1.651 -2.67,-1.155c-0.779,0.496 -0.852,1.818 -0.158,2.955c0.693,1.13 1.887,1.653 2.67,1.156m27.775,27.491l-36.694,0l0,-36.694l36.694,0l0,36.694z" fill="#82BC00"/>
   <path id="svg_279" d="m52.922,18.776c1.939,0 3.097,-0.25 3.818,-0.846c0.687,-0.563 1.095,-1.626 1.095,-2.816c0,-1.188 -0.408,-2.16 -1.126,-2.722c-0.845,-0.658 -1.847,-0.877 -4.068,-0.877l-3.161,0l0,7.261l3.442,0l0,0zm-0.47,-9.639c2.19,0 3.098,-0.22 3.849,-0.97c0.594,-0.532 0.876,-1.315 0.876,-2.286c0,-1.096 -0.344,-1.971 -0.97,-2.471c-0.688,-0.532 -1.626,-0.752 -3.41,-0.752l-3.317,0l0,6.479l2.972,0l0,0zm-10.609,9.607l1.221,0c1.846,0 2.034,-0.188 2.034,-1.908l0,-12.268c0,-1.753 -0.188,-1.94 -2.034,-1.94l-1.221,0l0,-2.378l11.985,0c5.196,0 7.73,1.689 7.73,5.132c0,2.565 -1.096,3.787 -4.194,4.692c1.785,0.439 2.536,0.784 3.35,1.472c1.094,0.908 1.659,2.253 1.659,3.943c0,1.784 -0.625,3.224 -1.784,4.131c-1.439,1.096 -3.38,1.503 -7.354,1.503l-11.392,0l0,-2.379z" fill="#82BC00"/>
   <path id="svg_280" d="m75.296,11.89c-0.344,-2.878 -1.096,-3.911 -2.88,-3.911c-1.845,0 -2.847,1.157 -3.348,3.911l6.228,0zm4.006,4.007c-0.407,2.284 -0.971,3.349 -2.316,4.38c-1.252,0.94 -2.816,1.409 -4.693,1.409c-4.57,0 -7.605,-3.161 -7.605,-7.855c0,-4.726 3.098,-7.917 7.729,-7.917c2.347,0 4.1,0.72 5.289,2.19c1.158,1.41 1.564,2.849 1.69,5.978l-10.454,0c0.126,1.972 0.376,2.816 0.971,3.692c0.688,0.97 1.596,1.408 2.942,1.408c1.063,0 2.002,-0.281 2.598,-0.782c0.563,-0.5 0.875,-1.096 1.251,-2.503l2.598,0z" fill="#82BC00"/>
   <path id="svg_281" d="m87.531,17.179c0,1.534 0.314,1.846 1.784,1.846l0.971,0l0,2.096l-9.295,0l0,-2.096l0.939,0c1.502,0 1.815,-0.312 1.815,-1.846l0,-12.987c0,-1.532 -0.313,-1.845 -1.815,-1.845l-0.939,0l0,-2.098l6.54,0l0,16.93z" fill="#82BC00"/>
   <path id="svg_282" d="m98.579,2.314c0,1.283 -1.033,2.315 -2.285,2.315c-1.314,0 -2.348,-1.033 -2.348,-2.378c0,-1.219 1.064,-2.251 2.316,-2.251c1.284,0 2.317,1.033 2.317,2.314m-6.854,16.711l1.126,0c1.471,0 1.784,-0.343 1.784,-1.845l0,-6.791c0,-1.503 -0.313,-1.847 -1.784,-1.847l-1.126,0l0,-2.097l6.697,0l0,10.735c0,1.502 0.312,1.845 1.783,1.845l0.939,0l0,2.098l-9.419,0l0,-2.098z" fill="#82BC00"/>
   <path id="svg_283" d="m113.38,11.89c-0.344,-2.878 -1.096,-3.911 -2.879,-3.911c-1.847,0 -2.847,1.157 -3.348,3.911l6.227,0zm4.005,4.007c-0.407,2.284 -0.97,3.349 -2.315,4.38c-1.252,0.94 -2.816,1.409 -4.695,1.409c-4.569,0 -7.603,-3.161 -7.603,-7.855c0,-4.726 3.097,-7.917 7.729,-7.917c2.347,0 4.099,0.72 5.288,2.19c1.159,1.41 1.566,2.849 1.691,5.978l-10.453,0c0.125,1.972 0.375,2.816 0.97,3.692c0.688,0.97 1.596,1.408 2.941,1.408c1.064,0 2.003,-0.281 2.598,-0.782c0.564,-0.5 0.876,-1.096 1.251,-2.503l2.598,0z" fill="#82BC00"/>
   <path id="svg_284" d="m120.89,10.108c-0.376,-1.127 -0.876,-1.567 -1.69,-1.567l-0.875,0l0,-2.095l8.074,0l0,2.095l-0.501,0c-0.875,0 -1.221,0.221 -1.221,0.784c0,0.313 0.094,0.812 0.282,1.313l2.316,6.791l2.505,-7.073c0.124,-0.342 0.186,-0.688 0.186,-1.031c0,-0.533 -0.437,-0.784 -1.377,-0.784l-0.75,0l0,-2.095l7.229,0l0,2.095l-0.785,0c-0.812,0 -1.405,0.596 -1.876,1.879l-3.755,10.701l-3.975,0l-3.787,-11.013z" fill="#82BC00"/>
   <path id="svg_285" d="m146.426,11.89c-0.345,-2.878 -1.096,-3.911 -2.879,-3.911c-1.847,0 -2.847,1.157 -3.348,3.911l6.227,0zm4.005,4.007c-0.406,2.284 -0.969,3.349 -2.315,4.38c-1.251,0.94 -2.816,1.409 -4.693,1.409c-4.57,0 -7.604,-3.161 -7.604,-7.855c0,-4.726 3.097,-7.917 7.729,-7.917c2.348,0 4.099,0.72 5.288,2.19c1.16,1.41 1.566,2.849 1.69,5.978l-10.452,0c0.126,1.972 0.376,2.816 0.97,3.692c0.688,0.97 1.596,1.408 2.941,1.408c1.065,0 2.003,-0.281 2.598,-0.782c0.563,-0.5 0.877,-1.096 1.252,-2.503l2.596,0z" fill="#82BC00"/>
   <path id="svg_286" d="m166.954,2.314c0,1.283 -1.032,2.315 -2.283,2.315c-1.314,0 -2.347,-1.033 -2.347,-2.378c0,-1.219 1.063,-2.251 2.316,-2.251c1.282,0 2.314,1.033 2.314,2.314m-6.853,16.711l1.128,0c1.469,0 1.782,-0.343 1.782,-1.845l0,-6.791c0,-1.503 -0.312,-1.847 -1.782,-1.847l-1.128,0l0,-2.097l6.698,0l0,10.735c0,1.502 0.312,1.845 1.783,1.845l0.939,0l0,2.098l-9.42,0l0,-2.098z" fill="#82BC00"/>
   <path id="svg_287" d="m170.991,19.025l1.001,0c1.472,0 1.785,-0.312 1.785,-1.845l0,-6.791c0,-1.534 -0.312,-1.847 -1.785,-1.847l-1.001,0l0,-2.097l6.539,0l0,2.567c1.941,-2.285 3.287,-3.035 5.289,-3.035c1.347,0 2.725,0.501 3.507,1.283c0.781,0.781 1.064,1.909 1.064,4.131l0,5.789c0,1.533 0.312,1.845 1.784,1.845l0.876,0l0,2.098l-8.826,0l0,-2.098l0.626,0c1.471,0 1.784,-0.312 1.784,-1.845l0,-5.789c0,-1.283 -0.095,-1.723 -0.439,-2.192c-0.406,-0.5 -1.095,-0.813 -1.878,-0.813c-1.096,0 -2.159,0.564 -2.878,1.534c-0.689,0.908 -0.909,1.72 -0.909,3.474l0,3.787c0,1.533 0.315,1.845 1.784,1.845l0.626,0l0,2.098l-8.949,0l0,-2.099z" fill="#82BC00"/>
   <path id="svg_288" d="m56.113,42.93c-0.218,2.441 -0.626,3.599 -1.597,4.726c-1.095,1.25 -2.785,1.908 -4.976,1.908c-4.569,0 -7.542,-3.063 -7.542,-7.792c0,-4.725 3.286,-7.947 8.105,-7.947c3.567,0 6.134,1.909 6.134,4.506c0,1.596 -1.001,2.659 -2.441,2.659c-1.314,0 -2.254,-0.845 -2.254,-2.065c0,-1.093 0.564,-1.72 1.784,-1.938c-1.188,-0.875 -1.815,-1.129 -2.911,-1.129c-2.69,0 -4.193,2.067 -4.193,5.79c0,3.38 1.314,5.103 3.849,5.103c2.192,0 3.162,-1.035 3.63,-3.82l2.412,-0.001l0,0z" fill="#82BC00"/>
   <path id="svg_289" d="m57.426,28.161l6.354,0l0,8.762c1.94,-2.254 3.286,-3.036 5.258,-3.036c1.345,0 2.721,0.502 3.504,1.285c0.783,0.78 1.063,1.906 1.063,4.129l0,5.789c0,1.534 0.313,1.848 1.784,1.848l0.877,0l0,2.095l-8.794,0l0,-2.095l0.626,0c1.439,0 1.751,-0.314 1.751,-1.848l0,-5.789c0,-1.284 -0.093,-1.721 -0.438,-2.188c-0.375,-0.502 -1.065,-0.816 -1.847,-0.816c-1.095,0 -2.159,0.562 -2.879,1.535c-0.688,0.875 -0.907,1.783 -0.907,3.597l0,3.662c0,1.534 0.312,1.848 1.784,1.848l0.625,0l0,2.095l-8.762,0l0,-2.095l0.814,0c1.471,0 1.783,-0.314 1.783,-1.848l0,-12.986c0,-1.535 -0.312,-1.847 -1.783,-1.847l-0.814,0l0.001,-2.097l0,0z" fill="#82BC00"/>
   <path id="svg_290" d="m84.465,30.225c0,1.284 -1.032,2.316 -2.284,2.316c-1.315,0 -2.347,-1.033 -2.347,-2.377c0,-1.223 1.064,-2.255 2.316,-2.255c1.282,0.001 2.315,1.033 2.315,2.316m-6.854,16.713l1.126,0c1.472,0 1.785,-0.346 1.785,-1.848l0,-6.79c0,-1.503 -0.312,-1.848 -1.785,-1.848l-1.126,0l0,-2.096l6.698,0l0,10.733c0,1.501 0.312,1.848 1.782,1.848l0.939,0l0,2.095l-9.419,0l0,-2.094z" fill="#82BC00"/>
   <path id="svg_291" d="m94.885,45.09c0,1.534 0.312,1.848 1.784,1.848l0.971,0l0,2.095l-9.293,0l0,-2.095l0.938,0c1.502,0 1.815,-0.314 1.815,-1.848l0,-12.986c0,-1.534 -0.313,-1.847 -1.815,-1.847l-0.938,0l0,-2.098l6.539,0l-0.001,16.931l0,0z" fill="#82BC00"/>
   <path id="svg_292" d="m103.647,41.647c0,3.538 1.158,5.322 3.412,5.322c2.346,0 3.662,-1.879 3.662,-5.228c0,-3.348 -1.316,-5.227 -3.662,-5.227c-2.223,0 -3.412,1.786 -3.412,5.133m3.974,-13.486l6.854,0l0,16.929c0,1.534 0.313,1.848 1.784,1.848l0.876,0l0,2.095l-6.414,0l0,-2.567c-1.285,2.253 -2.537,3.005 -4.915,3.005c-4.067,0 -6.415,-2.848 -6.415,-7.824c0,-4.974 2.348,-7.824 6.384,-7.824c2.409,0 3.661,0.753 4.945,2.974l0,-4.693c0,-1.535 -0.314,-1.847 -1.786,-1.847l-1.314,0l0.001,-2.096l0,0z" fill="#82BC00"/>
   <path id="svg_293" d="m128.402,49.033l-9.889,0l0,-2.095l1.001,0c1.47,0 1.782,-0.346 1.782,-1.848l0,-6.791c0,-1.533 -0.312,-1.846 -1.782,-1.846l-1.001,0l0,-2.096l6.54,0l0,2.189c1.189,-1.878 2.286,-2.597 3.975,-2.597c2.128,0 3.692,1.408 3.692,3.349c0,1.535 -1.033,2.628 -2.503,2.628c-1.283,0 -2.128,-0.752 -2.128,-1.909c0,-1.062 0.531,-1.657 1.877,-2.097c-0.562,-0.187 -1.063,-0.312 -1.376,-0.312c-0.876,0 -1.94,0.688 -2.566,1.69c-0.626,0.939 -0.97,2.345 -0.97,3.817l0,3.975c0,1.501 0.312,1.848 1.785,1.848l1.564,0l-0.001,2.095l0,0z" fill="#82BC00"/>
   <path id="svg_294" d="m144.549,39.8c-0.344,-2.878 -1.095,-3.911 -2.88,-3.911c-1.846,0 -2.847,1.16 -3.348,3.911l6.228,0zm4.004,4.007c-0.406,2.283 -0.97,3.349 -2.315,4.381c-1.252,0.939 -2.816,1.408 -4.694,1.408c-4.569,0 -7.603,-3.16 -7.603,-7.855c0,-4.724 3.097,-7.918 7.728,-7.918c2.348,0 4.1,0.722 5.29,2.192c1.157,1.408 1.563,2.848 1.69,5.977l-10.454,0c0.126,1.973 0.375,2.817 0.97,3.693c0.688,0.969 1.597,1.409 2.942,1.409c1.063,0 2.002,-0.283 2.598,-0.785c0.562,-0.498 0.875,-1.093 1.25,-2.502l2.598,0z" fill="#82BC00"/>
   <path id="svg_295" d="m150.401,46.938l1,0c1.472,0 1.784,-0.314 1.784,-1.848l0,-6.79c0,-1.534 -0.312,-1.848 -1.784,-1.848l-1,0l0,-2.096l6.539,0l0,2.565c1.942,-2.285 3.288,-3.036 5.29,-3.036c1.346,0 2.724,0.5 3.505,1.281c0.782,0.784 1.064,1.91 1.064,4.133l0,5.789c0,1.534 0.313,1.848 1.784,1.848l0.876,0l0,2.095l-8.824,0l0,-2.095l0.625,0c1.471,0 1.784,-0.314 1.784,-1.848l0,-5.789c0,-1.284 -0.095,-1.721 -0.438,-2.191c-0.406,-0.5 -1.095,-0.813 -1.876,-0.813c-1.097,0 -2.16,0.562 -2.879,1.535c-0.689,0.907 -0.909,1.719 -0.909,3.472l0,3.787c0,1.534 0.314,1.848 1.784,1.848l0.625,0l0,2.095l-8.948,0l0,-2.094l-0.002,0z" fill="#82BC00"/>
  </g>
 </g>
</svg>